<svg xmlns="http://www.w3.org/2000/svg" viewBox="0 0 323.38 119.14">
  <path fill="#fffae8" d="M308.62 43.46c-1.9-1.69-1.94-4.12-1.16-6.34-4.86 1.22-9.16 4.51-11.58 8.9-.39.71-.73 1.64-.24 2.3.34.46.96.59 1.53.69 2.35.41 4.92.79 7.01-.37.8-.44 1.48-1.09 2.14-1.73l3.02-2.9s-.05-.05-.07-.08c-.22-.14-.44-.3-.64-.47ZM318.59 51.7c.56-2.98 1.06-6.17.65-9.12-1.14 1.26-2.58 2.31-4.3 2.51-.28.03-.56.03-.83.01-.63.34-1.32.55-2.07.5-.76-.05-1.4-.35-1.94-.79-1.02 1.71-1.83 3.54-2.35 5.47-.65 2.4-.8 5.19.74 7.14 1.18 1.48 3.08 2.14 4.88 2.73.51.17 1.05.33 1.56.17.48-.15.83-.56 1.11-.98 1.53-2.23 2.07-4.98 2.57-7.64Z"/>
  <path fill="#152596" d="M322.9 36.58c.73-1.87.74-3.84-.78-5.31-.87-.84-2.09-1.32-3.31-1.38-.69-.3-1.47-.38-2.27-.23-1.21.05-2.44.53-3.4 1.37-1.48.43-2.76 1.48-3.73 2.65-.79.95-1.5 2.16-1.95 3.43-.78 2.22-.74 4.65 1.16 6.34.2.18.41.33.64.47.02.03.05.05.07.08.22.3.48.57.76.8.54.44 1.18.74 1.94.79.75.05 1.45-.15 2.07-.5.28.02.55.02.83-.01 1.72-.2 3.16-1.25 4.3-2.51.12-.13.25-.25.37-.39 1.36-1.64 2.52-3.62 3.3-5.61Z"/>
  <g>
    <path fill="#4363b9" d="m89.89 53.85-2.17 2.04-2.06-2.14c-.72.6-1.56 1.06-2.5 1.39-.94.33-1.96.49-3.06.49-2.73 0-4.93-.96-6.58-2.88-1.65-1.92-2.47-4.42-2.47-7.49s.82-5.59 2.47-7.52c1.65-1.92 3.84-2.88 6.58-2.88s4.93.97 6.59 2.9c1.66 1.93 2.49 4.43 2.49 7.5 0 1.25-.15 2.43-.44 3.52-.29 1.09-.71 2.06-1.26 2.91l2.41 2.17Zm-15.64-8.6c0 2.22.53 4.03 1.59 5.41 1.06 1.39 2.48 2.08 4.26 2.08.65 0 1.27-.1 1.84-.29.57-.19 1.08-.48 1.52-.85l-3.39-3.15 2.06-2.06 2.99 3.04c.28-.58.49-1.23.63-1.93.14-.71.21-1.46.21-2.25 0-2.22-.53-4.03-1.6-5.42-1.07-1.39-2.49-2.09-4.27-2.09s-3.2.69-4.26 2.08c-1.06 1.39-1.59 3.2-1.59 5.44ZM103.84 54.2c-.67.48-1.37.83-2.09 1.07-.72.24-1.47.36-2.25.36-1.39 0-2.45-.39-3.18-1.16-.72-.78-1.08-1.92-1.08-3.44V40.92h2.96v9.13c0 1.08.16 1.83.48 2.28s.86.66 1.61.66c.67 0 1.37-.14 2.1-.42.73-.28 1.24-.62 1.52-1.01V40.92h2.96v14.42h-2.96v-1.06l-.08-.08ZM117.36 35.46c0 .58-.2 1.07-.6 1.47-.4.4-.89.6-1.47.6s-1.07-.2-1.47-.6c-.4-.4-.6-.89-.6-1.47s.2-1.07.6-1.47c.4-.4.89-.6 1.47-.6s1.07.2 1.47.6c.4.4.6.89.6 1.47Zm-.58 5.45v14.42h-2.96V40.91h2.96ZM139.14 43.43v11.91h-2.96V43.43h-2.17v-2.51h2.17c.07-2.38.55-4.11 1.43-5.17s2.22-1.6 4.02-1.6c.46 0 .91.04 1.36.11.45.07.91.19 1.39.34v2.75c-.28-.19-.63-.34-1.05-.45a5.34 5.34 0 0 0-1.36-.16c-1.08 0-1.82.27-2.22.81-.41.54-.61 1.66-.61 3.38h3.84v2.51h-3.84ZM156.21 53.99c-.46.49-1.05.89-1.79 1.19s-1.51.45-2.34.45c-1.36 0-2.44-.41-3.26-1.22s-1.22-1.88-1.22-3.2c0-1.48.54-2.62 1.63-3.43 1.09-.8 2.64-1.2 4.67-1.2h2.01c.02-.05.03-.11.03-.19v-.37c0-1.02-.22-1.74-.68-2.14-.45-.41-1.23-.61-2.34-.61-.72 0-1.42.08-2.1.24-.68.16-1.39.42-2.13.77v-2.73c.3-.14.65-.27 1.05-.38.4-.11.83-.22 1.31-.3.41-.09.82-.15 1.24-.18s.84-.05 1.24-.05c1.91 0 3.27.46 4.1 1.38.83.92 1.24 2.39 1.24 4.42v8.92h-2.14l-.45-1.32-.08-.03Zm-1.99-5.21c-1.23 0-2.15.18-2.74.53-.59.35-.89.92-.89 1.69 0 .71.19 1.24.58 1.61.39.37.95.56 1.69.56.69 0 1.35-.15 1.97-.45.62-.3 1.06-.65 1.31-1.06v-2.88h-1.93ZM169.1 35.46c0 .58-.2 1.07-.59 1.47s-.89.6-1.47.6-1.07-.2-1.47-.6c-.4-.4-.6-.89-.6-1.47s.2-1.07.6-1.47c.4-.4.89-.6 1.47-.6s1.07.2 1.47.6.59.89.59 1.47Zm-.58 5.45v14.42h-2.96V40.91h2.96ZM183.47 55.12c-.39.16-.82.28-1.3.37-.48.09-.96.13-1.46.13-1.52 0-2.65-.42-3.4-1.27-.75-.85-1.12-2.12-1.12-3.81v-7.09h-2.33v-2.54h2.33V37.1h2.96v3.81h4.02v2.54h-4.02v5.45c0 1.57.15 2.64.46 3.2s.89.85 1.73.85c.33 0 .69-.04 1.07-.11.38-.07.73-.16 1.04-.26v2.54Z"/>
  </g>
  <g>
    <path fill="#152596" d="M11.79 71.79v4.62c4.27-3.08 9.4-5.47 14.02-5.47 4.1 0 7.18 1.88 8.55 6.15 4.44-3.25 9.91-6.15 14.87-6.15 5.81 0 9.23 3.42 9.23 12.14v34.36H46.67V85.82c0-3.59-.85-4.96-3.42-4.96-2.22 0-4.79 1.03-8.2 3.08v33.5H23.43V85.82c0-3.59-1.03-4.96-3.59-4.96-2.22 0-4.79 1.03-8.03 3.08v33.5H0V71.8h11.79ZM102.9 94.87c0 15.9-7.18 24.27-18.29 24.27s-18.12-8.38-18.12-24.27 7.18-24.61 18.12-24.61 18.29 8.38 18.29 24.61Zm-25.3-.51c0 10.26 2.73 14.19 7.01 14.19s7.18-3.93 7.18-14.19-2.74-14.7-7.18-14.7-7.01 4.1-7.01 14.7ZM122.89 71.79v30.94c0 3.59.85 4.96 3.59 4.96 1.88 0 4.62-.86 8.03-3.08V71.79h11.62v45.64h-11.62v-4.62c-4.44 3.08-9.4 5.47-14.19 5.47-5.81 0-9.23-3.42-9.23-12.14V71.78h11.79ZM184.77 82.22c-2.56-1.71-5.64-2.56-8.55-2.56-7.52 0-10.43 5.3-10.43 13.68s2.56 14.87 10.26 14.87c3.08 0 7.35-1.03 10.08-3.25l1.54 8.38c-3.25 3.59-9.06 5.81-14.87 5.81-11.45 0-18.46-8.89-18.46-24.27 0-16.24 7.69-24.61 20.85-24.61 4.27 0 8.03.68 11.11 2.39l-1.54 9.57ZM206.3 0v76.41c4.27-3.08 9.4-5.47 14.02-5.47 5.81 0 9.23 3.42 9.23 12.14v34.36h-11.62V85.82c0-3.59-1.03-4.96-3.59-4.96-2.22 0-4.79 1.03-8.03 3.08v33.5h-11.79V0h11.79ZM249.38 95.55c.51 7.35 3.42 12.31 10.6 12.31 2.91 0 5.81-.85 8.38-2.9l1.54 8.38c-3.59 3.76-8.55 5.81-14.02 5.81-13.33 0-18.12-12.13-18.12-24.96 0-15.72 7.18-23.93 17.61-23.93 9.57 0 16.75 7.01 16.75 19.14 0 2.05-.17 4.1-.51 6.15h-22.22Zm12.48-6.49c-.17-4.96-1.71-9.74-6.15-9.74-3.93 0-5.98 3.25-6.5 9.74h12.65Z"/>
  </g>
</svg>